<svg xmlns="http://www.w3.org/2000/svg" xmlns:xlink="http://www.w3.org/1999/xlink">
	<symbol id="home" xmlns="http://www.w3.org/2000/svg" viewBox="0 0 24 24" width="24" height="24">
		<path fill="none" d="M0 0h24v24H0z"/>
		<path fill="currentColor" d="M13 19h6V9.978l-7-5.444-7 5.444V19h6v-6h2v6zm8 1a1 1 0 0 1-1 1H4a1 1 0 0 1-1-1V9.49a1 1 0 0 1 .386-.79l8-6.222a1 1 0 0 1 1.228 0l8 6.222a1 1 0 0 1 .386.79V20z"/>
	</symbol>
	<symbol id="dashboard" xmlns="http://www.w3.org/2000/svg" viewBox="0 0 24 24" width="24" height="24">
		<path fill="none" d="M0 0H24V24H0z" />
		<path fill="currentColor" d="M12 2c5.523 0 10 4.477 10 10s-4.477 10-10 10S2 17.523 2 12 6.477 2 12 2zm0 2c-4.418 0-8 3.582-8 8s3.582 8 8 8 8-3.582 8-8-3.582-8-8-8zm0 1c1.018 0 1.985.217 2.858.608L13.295 7.17C12.882 7.06 12.448 7 12 7c-2.761 0-5 2.239-5 5 0 1.38.56 2.63 1.464 3.536L7.05 16.95l-.156-.161C5.72 15.537 5 13.852 5 12c0-3.866 3.134-7 7-7zm6.392 4.143c.39.872.608 1.84.608 2.857 0 1.933-.784 3.683-2.05 4.95l-1.414-1.414C16.44 14.63 17 13.38 17 12c0-.448-.059-.882-.17-1.295l1.562-1.562zm-2.15-2.8l1.415 1.414-3.724 3.726c.044.165.067.338.067.517 0 1.105-.895 2-2 2s-2-.895-2-2 .895-2 2-2c.179 0 .352.023.517.067l3.726-3.724z" />
	</symbol>
	<symbol id="suppliers" xmlns="http://www.w3.org/2000/svg" viewBox="0 0 24 24" width="24" height="24">
		<path fill="none" d="M0 0h24v24H0z"/>
		<path fill="currentColor" d="M21 13.242V20h1v2H2v-2h1v-6.758A4.496 4.496 0 0 1 1 9.5c0-.827.224-1.624.633-2.303L4.345 2.5a1 1 0 0 1 .866-.5H18.79a1 1 0 0 1 .866.5l2.702 4.682A4.496 4.496 0 0 1 21 13.242zm-2 .73a4.496 4.496 0 0 1-3.75-1.36A4.496 4.496 0 0 1 12 14.001a4.496 4.496 0 0 1-3.25-1.387A4.496 4.496 0 0 1 5 13.973V20h14v-6.027zM5.789 4L3.356 8.213a2.5 2.5 0 0 0 4.466 2.216c.335-.837 1.52-.837 1.856 0a2.5 2.5 0 0 0 4.644 0c.335-.837 1.52-.837 1.856 0a2.5 2.5 0 1 0 4.457-2.232L18.21 4H5.79z"/>
	</symbol>
	<symbol id="products" xmlns="http://www.w3.org/2000/svg" viewBox="0 0 24 24" width="24" height="24">
		<path fill="none" d="M0 0h24v24H0z"/>
		<path fill="currentColor" d="M20 22H4a1 1 0 0 1-1-1V3a1 1 0 0 1 1-1h16a1 1 0 0 1 1 1v18a1 1 0 0 1-1 1zm-1-2V4H5v16h14zM7 6h4v4H7V6zm0 6h10v2H7v-2zm0 4h10v2H7v-2zm6-9h4v2h-4V7z"/>
	</symbol>
	<symbol id="orders" xmlns="http://www.w3.org/2000/svg" viewBox="0 0 24 24" width="24" height="24">
		<path fill="none" d="M0 0h24v24H0z"/>
		<path fill="currentColor" d="M4 16V4H2V2h3a1 1 0 0 1 1 1v12h12.438l2-8H8V5h13.72a1 1 0 0 1 .97 1.243l-2.5 10a1 1 0 0 1-.97.757H5a1 1 0 0 1-1-1zm2 7a2 2 0 1 1 0-4 2 2 0 0 1 0 4zm12 0a2 2 0 1 1 0-4 2 2 0 0 1 0 4z"/>
	</symbol>
	<symbol id="employees" xmlns="http://www.w3.org/2000/svg" viewBox="0 0 24 24" width="24" height="24">
		<path fill="none" d="M0 0h24v24H0z"/>
		<path fill="currentColor" d="M3 4.995C3 3.893 3.893 3 4.995 3h14.01C20.107 3 21 3.893 21 4.995v14.01A1.995 1.995 0 0 1 19.005 21H4.995A1.995 1.995 0 0 1 3 19.005V4.995zM5 5v14h14V5H5zm2.972 13.18a9.983 9.983 0 0 1-1.751-.978A6.994 6.994 0 0 1 12.102 14c2.4 0 4.517 1.207 5.778 3.047a9.995 9.995 0 0 1-1.724 1.025A4.993 4.993 0 0 0 12.102 16c-1.715 0-3.23.864-4.13 2.18zM12 13a3.5 3.5 0 1 1 0-7 3.5 3.5 0 0 1 0 7zm0-2a1.5 1.5 0 1 0 0-3 1.5 1.5 0 0 0 0 3z"/>
	</symbol>
	<symbol id="customers" xmlns="http://www.w3.org/2000/svg" viewBox="0 0 24 24" width="24" height="24">
		<path fill="none" d="M0 0h24v24H0z"/>
		<path fill="currentColor" d="M12 11a5 5 0 0 1 5 5v6h-2v-6a3 3 0 0 0-2.824-2.995L12 13a3 3 0 0 0-2.995 2.824L9 16v6H7v-6a5 5 0 0 1 5-5zm-6.5 3c.279 0 .55.033.81.094a5.947 5.947 0 0 0-.301 1.575L6 16v.086a1.492 1.492 0 0 0-.356-.08L5.5 16a1.5 1.5 0 0 0-1.493 1.356L4 17.5V22H2v-4.5A3.5 3.5 0 0 1 5.5 14zm13 0a3.5 3.5 0 0 1 3.5 3.5V22h-2v-4.5a1.5 1.5 0 0 0-1.356-1.493L18.5 16c-.175 0-.343.03-.5.085V16c0-.666-.108-1.306-.309-1.904.259-.063.53-.096.809-.096zm-13-6a2.5 2.5 0 1 1 0 5 2.5 2.5 0 0 1 0-5zm13 0a2.5 2.5 0 1 1 0 5 2.5 2.5 0 0 1 0-5zm-13 2a.5.5 0 1 0 0 1 .5.5 0 0 0 0-1zm13 0a.5.5 0 1 0 0 1 .5.5 0 0 0 0-1zM12 2a4 4 0 1 1 0 8 4 4 0 0 1 0-8zm0 2a2 2 0 1 0 0 4 2 2 0 0 0 0-4z"/>
	</symbol>
	<symbol id="search" xmlns="http://www.w3.org/2000/svg" viewBox="0 0 24 24" width="24" height="24">
		<path fill="none" d="M0 0h24v24H0z"/>
		<path fill="currentColor" d="M11 2c4.968 0 9 4.032 9 9s-4.032 9-9 9-9-4.032-9-9 4.032-9 9-9zm0 16c3.867 0 7-3.133 7-7 0-3.868-3.133-7-7-7-3.868 0-7 3.132-7 7 0 3.867 3.132 7 7 7zm8.485.071l2.829 2.828-1.415 1.415-2.828-2.829 1.414-1.414z"/>
	</symbol>
	<symbol id="menu" xmlns="http://www.w3.org/2000/svg" viewBox="0 0 24 24" width="24" height="24">
		<path fill="none" d="M0 0h24v24H0z"/>
		<path fill="currentColor" d="M3 4h18v2H3V4zm0 7h18v2H3v-2zm0 7h18v2H3v-2z"/>
	</symbol>
	<symbol id="arrow-down" xmlns="http://www.w3.org/2000/svg" viewBox="0 0 24 24" width="24" height="24">
		<path fill="none" d="M0 0h24v24H0z"/>
		<path fill="currentColor" d="M12 13.172l4.95-4.95 1.414 1.414L12 16 5.636 9.636 7.05 8.222z"/>
	</symbol>
	<symbol id="arrow-right" xmlns="http://www.w3.org/2000/svg" viewBox="0 0 24 24" width="24" height="24">
		<path fill="none" d="M0 0h24v24H0z"/>
		<path fill="currentColor" d="M14.59 16.004L5.982 7.397l1.414-1.414 8.607 8.606V7.004h2v11h-11v-2z"/>
	</symbol>
	<symbol id="link" xmlns="http://www.w3.org/2000/svg" viewBox="0 0 24 24" width="24" height="24">
		<path fill="none" d="M0 0h24v24H0z"/>
		<path fill="currentColor" d="M18.364 15.536L16.95 14.12l1.414-1.414a5 5 0 1 0-7.071-7.071L9.879 7.05 8.464 5.636 9.88 4.222a7 7 0 0 1 9.9 9.9l-1.415 1.414zm-2.828 2.828l-1.415 1.414a7 7 0 0 1-9.9-9.9l1.415-1.414L7.05 9.88l-1.414 1.414a5 5 0 1 0 7.071 7.071l1.414-1.414 1.415 1.414zm-.708-10.607l1.415 1.415-7.071 7.07-1.415-1.414 7.071-7.07z"/>
	</symbol>
	<symbol id="info" xmlns="http://www.w3.org/2000/svg" viewBox="0 0 24 24" width="24" height="24">
		<path fill="none" d="M0 0h24v24H0z"/>
		<path fill="currentColor" d="M12 22C6.477 22 2 17.523 2 12S6.477 2 12 2s10 4.477 10 10-4.477 10-10 10zm0-2a8 8 0 1 0 0-16 8 8 0 0 0 0 16zM11 7h2v2h-2V7zm0 4h2v6h-2v-6z"/>
	</symbol>
</svg>
